<svg xmlns="http://www.w3.org/2000/svg" xmlns:xlink="http://www.w3.org/1999/xlink" width="40" zoomAndPan="magnify" viewBox="0 0 30 30.000001" height="40" preserveAspectRatio="xMidYMid meet" version="1.0"><defs><clipPath id="038a89572f"><path d="M 0.691406 9.082031 L 10 9.082031 L 10 19.96875 L 0.691406 19.96875 Z M 0.691406 9.082031 " clip-rule="nonzero"/></clipPath><clipPath id="5b4ba47c03"><path d="M 10 9.082031 L 20 9.082031 L 20 19.96875 L 10 19.96875 Z M 10 9.082031 " clip-rule="nonzero"/></clipPath><clipPath id="3450079b90"><path d="M 20 9.082031 L 28.996094 9.082031 L 28.996094 19.96875 L 20 19.96875 Z M 20 9.082031 " clip-rule="nonzero"/></clipPath><clipPath id="744971df82"><path d="M 1.550781 10.667969 L 7.847656 10.667969 L 7.847656 11.640625 L 1.550781 11.640625 Z M 10.238281 13.738281 L 10.273438 13.738281 L 10.273438 14.765625 L 10.238281 14.765625 Z M 5.1875 18.664062 L 10.273438 18.664062 L 10.273438 19.410156 L 5.1875 19.410156 Z M 5.1875 18.664062 " clip-rule="nonzero"/></clipPath><clipPath id="976c5b2b7d"><path d="M 15.898438 11.640625 L 19.992188 11.640625 L 19.992188 12.511719 L 15.898438 12.511719 Z M 11.378906 13.738281 L 19.992188 13.738281 L 19.992188 14.765625 L 11.378906 14.765625 Z M 11.378906 13.738281 " clip-rule="nonzero"/></clipPath><clipPath id="d2d15627bd"><path d="M 22.386719 10.667969 L 26.992188 10.667969 L 26.992188 11.640625 L 22.386719 11.640625 Z M 25.570312 14.765625 L 28.996094 14.765625 L 28.996094 15.328125 L 25.570312 15.328125 Z M 21.371094 18.960938 L 28.996094 18.960938 L 28.996094 19.855469 L 21.371094 19.855469 Z M 21.371094 18.960938 " clip-rule="nonzero"/></clipPath></defs><g clip-path="url(#038a89572f)"><path fill="#000000" d="M 5.613281 20.128906 L 8.195312 20.128906 L 8.195312 19.410156 L 5.605469 19.410156 Z M 8.195312 15.917969 L 8.195312 13.367188 L 5.914062 13.367188 L 5.628906 15.917969 L 3.546875 15.917969 L 5.484375 11.640625 L 2.863281 11.640625 L 0.8125 16.125 L 0.8125 17.800781 L 5.59375 17.800781 L 5.601562 18.664062 L 8.195312 18.664062 L 8.195312 17.800781 L 9.46875 17.800781 L 9.46875 15.917969 Z M 4.035156 9.082031 L 3.308594 10.667969 L 5.925781 10.667969 L 6.28125 9.878906 L 4.035156 9.082031 " fill-opacity="1" fill-rule="nonzero"/></g><g clip-path="url(#5b4ba47c03)"><path fill="#000000" d="M 18.964844 12.511719 L 16.328125 12.511719 C 16.390625 12.84375 16.433594 13.253906 16.460938 13.738281 L 19.160156 13.738281 C 19.121094 13.300781 19.054688 12.890625 18.964844 12.511719 Z M 18.101562 10.578125 C 17.367188 9.613281 16.308594 9.128906 14.921875 9.128906 C 13.535156 9.128906 12.476562 9.613281 11.742188 10.578125 C 11.152344 11.359375 10.800781 12.410156 10.6875 13.738281 L 13.386719 13.738281 C 13.410156 13.25 13.457031 12.839844 13.523438 12.507812 C 13.628906 11.964844 13.792969 11.578125 14.015625 11.34375 C 14.242188 11.109375 14.542969 10.992188 14.921875 10.992188 C 15.304688 10.992188 15.605469 11.105469 15.828125 11.328125 C 15.910156 11.410156 15.984375 11.515625 16.050781 11.640625 L 18.695312 11.640625 C 18.535156 11.242188 18.335938 10.890625 18.101562 10.578125 Z M 16.484375 14.761719 C 16.484375 15.726562 16.429688 16.480469 16.324219 17.027344 C 16.21875 17.574219 16.050781 17.960938 15.828125 18.191406 C 15.605469 18.417969 15.304688 18.535156 14.921875 18.535156 C 14.542969 18.535156 14.242188 18.417969 14.015625 18.183594 C 13.792969 17.949219 13.628906 17.558594 13.523438 17.011719 C 13.414062 16.464844 13.363281 15.714844 13.363281 14.761719 L 10.644531 14.761719 C 10.644531 16.566406 11.011719 17.957031 11.742188 18.933594 C 12.476562 19.910156 13.535156 20.398438 14.921875 20.398438 C 16.308594 20.398438 17.367188 19.910156 18.101562 18.933594 C 18.832031 17.957031 19.199219 16.566406 19.199219 14.761719 L 16.484375 14.761719 " fill-opacity="1" fill-rule="nonzero"/></g><g clip-path="url(#3450079b90)"><path fill="#000000" d="M 23.695312 9.082031 L 22.972656 10.667969 L 25.585938 10.667969 L 25.945312 9.878906 Z M 25.273438 19.855469 L 25.273438 20.128906 L 27.859375 20.128906 L 27.859375 19.855469 Z M 27.859375 15.917969 L 27.859375 15.328125 L 25.355469 15.328125 L 25.289062 15.917969 L 23.210938 15.917969 L 25.148438 11.640625 L 22.527344 11.640625 L 20.476562 16.125 L 20.476562 17.800781 L 25.257812 17.800781 L 25.265625 18.960938 L 27.859375 18.960938 L 27.859375 17.800781 L 29.132812 17.800781 L 29.132812 15.917969 Z M 25.578125 13.367188 L 25.421875 14.761719 L 27.859375 14.761719 L 27.859375 13.367188 L 25.578125 13.367188 " fill-opacity="1" fill-rule="nonzero"/></g><g clip-path="url(#744971df82)"><path fill="#000000" d="M 8.960938 17.800781 L 8.960938 20.128906 L 6.378906 20.128906 L 6.363281 17.800781 L 1.582031 17.800781 L 1.582031 16.125 L 4.800781 9.082031 L 7.050781 9.878906 L 4.316406 15.917969 L 6.394531 15.917969 L 6.679688 13.367188 L 8.960938 13.367188 L 8.960938 15.917969 L 10.238281 15.917969 L 10.238281 17.800781 L 8.960938 17.800781 " fill-opacity="1" fill-rule="nonzero"/></g><g clip-path="url(#976c5b2b7d)"><path fill="#000000" d="M 14.785156 11.34375 C 14.558594 11.578125 14.394531 11.964844 14.289062 12.507812 C 14.183594 13.050781 14.128906 13.800781 14.128906 14.753906 C 14.128906 15.710938 14.183594 16.464844 14.289062 17.011719 C 14.394531 17.558594 14.558594 17.949219 14.785156 18.183594 C 15.007812 18.417969 15.308594 18.535156 15.691406 18.535156 C 16.070312 18.535156 16.371094 18.417969 16.597656 18.191406 C 16.820312 17.960938 16.984375 17.574219 17.089844 17.027344 C 17.199219 16.480469 17.25 15.722656 17.25 14.753906 C 17.25 13.789062 17.199219 13.03125 17.089844 12.484375 C 16.984375 11.9375 16.820312 11.550781 16.597656 11.328125 C 16.371094 11.105469 16.070312 10.992188 15.691406 10.992188 C 15.308594 10.992188 15.007812 11.109375 14.785156 11.34375 Z M 18.871094 10.578125 C 19.601562 11.546875 19.96875 12.9375 19.96875 14.753906 C 19.96875 16.5625 19.601562 17.953125 18.871094 18.933594 C 18.136719 19.910156 17.078125 20.398438 15.691406 20.398438 C 14.304688 20.398438 13.242188 19.910156 12.511719 18.933594 C 11.777344 17.953125 11.414062 16.5625 11.414062 14.753906 C 11.414062 12.9375 11.777344 11.546875 12.511719 10.578125 C 13.242188 9.613281 14.304688 9.128906 15.691406 9.128906 C 17.078125 9.128906 18.136719 9.613281 18.871094 10.578125 " fill-opacity="1" fill-rule="nonzero"/></g><g clip-path="url(#d2d15627bd)"><path fill="#000000" d="M 28.625 17.800781 L 28.625 20.128906 L 26.042969 20.128906 L 26.023438 17.800781 L 21.242188 17.800781 L 21.242188 16.125 L 24.464844 9.082031 L 26.714844 9.878906 L 23.976562 15.917969 L 26.058594 15.917969 L 26.34375 13.367188 L 28.625 13.367188 L 28.625 15.917969 L 29.902344 15.917969 L 29.902344 17.800781 L 28.625 17.800781 " fill-opacity="1" fill-rule="nonzero"/></g></svg>